HIERARCHY
ROOT Hips
{
  OFFSET 53.4527 84.4694 8.47001
  CHANNELS 6 Xposition Yposition Zposition Zrotation Xrotation Yrotation
  JOINT spine
  {
    OFFSET 0 5.95438 0.342407
    CHANNELS 3 Zrotation Xrotation Yrotation
    JOINT spine1
    {
      OFFSET 0 8.85602 0
      CHANNELS 3 Zrotation Xrotation Yrotation
      JOINT spine2
      {
        OFFSET 0 8.48567 0
        CHANNELS 3 Zrotation Xrotation Yrotation
        JOINT Neck
        {
          OFFSET 0 21.7863 1.0387
          CHANNELS 3 Zrotation Xrotation Yrotation
          JOINT Head
          {
            OFFSET 0 6.5822 0
            CHANNELS 3 Zrotation Xrotation Yrotation
            End Site
            {
              OFFSET 0 15.9326 -5.25436
            }
          }
        }
        JOINT RightShoulder
        {
          OFFSET -3.57307 9.16386 -0.497525
          CHANNELS 3 Zrotation Xrotation Yrotation
          JOINT RightArm
          {
            OFFSET 0 12.0192 0
            CHANNELS 3 Zrotation Xrotation Yrotation
            JOINT RightArmRoll
            {
              OFFSET 0 6.06754 0
              CHANNELS 3 Zrotation Xrotation Yrotation
              JOINT RightForeArm
              {
                OFFSET 0 17.6726 0
                CHANNELS 3 Zrotation Xrotation Yrotation
                JOINT RightForeArmRoll
                {
                  OFFSET 0 6.80872 0
                  CHANNELS 3 Zrotation Xrotation Yrotation
                  JOINT RightHand
                  {
                    OFFSET 0 13.6636 0
                    CHANNELS 3 Zrotation Xrotation Yrotation
                    End Site
                    {
                      OFFSET 0 0 0
                    }
                  }
                }
              }
            }
          }
        }
        JOINT LeftShoulder
        {
          OFFSET 3.57307 9.16386 -0.497525
          CHANNELS 3 Zrotation Xrotation Yrotation
          JOINT LeftArm
          {
            OFFSET 0 12.0192 0
            CHANNELS 3 Zrotation Xrotation Yrotation
            JOINT LeftArmRoll
            {
              OFFSET 0 6.06755 0
              CHANNELS 3 Zrotation Xrotation Yrotation
              JOINT LeftForeArm
              {
                OFFSET 0 17.6726 0
                CHANNELS 3 Zrotation Xrotation Yrotation
                JOINT LeftForeArmRoll
                {
                  OFFSET 0 6.80872 0
                  CHANNELS 3 Zrotation Xrotation Yrotation
                  JOINT LeftHand
                  {
                    OFFSET 0 13.6636 0
                    CHANNELS 3 Zrotation Xrotation Yrotation
                    End Site
                    {
                      OFFSET 0 0 0
                    }
                  }
                }
              }
            }
          }
        }
      }
    }
  }
  JOINT RightUpLeg
  {
    OFFSET -5.27774 -0.967797 -0.811858
    CHANNELS 3 Zrotation Xrotation Yrotation
    JOINT RightUpLegRoll
    {
      OFFSET 0 16.0214 0
      CHANNELS 3 Zrotation Xrotation Yrotation
      JOINT RightLeg
      {
        OFFSET 0 -19.8401 0
        CHANNELS 3 Zrotation Xrotation Yrotation
        JOINT RightLegRoll
        {
          OFFSET 0 19.905 0
          CHANNELS 3 Zrotation Xrotation Yrotation
          JOINT RightFoot
          {
            OFFSET 0 16.5675 0
            CHANNELS 3 Zrotation Xrotation Yrotation
            JOINT RightToeBase
            {
              OFFSET 0 13.8496 0
              CHANNELS 3 Zrotation Xrotation Yrotation
              End Site
              {
                OFFSET 0.00587034 6.70728 -0.773117
              }
            }
          }
        }
      }
    }
  }
  JOINT LeftUpLeg
  {
    OFFSET 5.27774 -0.967797 -0.811858
    CHANNELS 3 Zrotation Xrotation Yrotation
    JOINT LeftUpLegRoll
    {
      OFFSET 0 16.0215 0
      CHANNELS 3 Zrotation Xrotation Yrotation
      JOINT LeftLeg
      {
        OFFSET 0 19.84 0
        CHANNELS 3 Zrotation Xrotation Yrotation
        JOINT LeftLegRoll
        {
          OFFSET 0 20.089 0
          CHANNELS 3 Zrotation Xrotation Yrotation
          JOINT LeftFoot
          {
            OFFSET 0 16.3835 0
            CHANNELS 3 Zrotation Xrotation Yrotation
            JOINT LeftToeBase
            {
              OFFSET 0 13.8496 0
              CHANNELS 3 Zrotation Xrotation Yrotation
              End Site
              {
                OFFSET -0.0263083 6.70728 -0.773117
              }
            }
          }
        }
      }
    }
  }
}
MOTION
Frames: 13
Frame Time: 0.00208333
52.677 84.4765 6.38807 -1.65177 -6.95862 0.999132 0.0809599 -1.10717 0.0242594 0.156818 1.78852 0.0398606 0.156464 3.43358 0.0381083 -1.46159 12.9892 -0.411575 8.8196 7.30687 -0.729168 7.9447 -16.5389 -16.4977 17.1011 24.9248 75.5382 3.27664e-006 -9.69565e-007 1.55962e-006 -6.95044 67.7101 2.0907 -1.97493e-006 1.85689e-006 -3 8.03009 -4.95139 0.697628 -7.16246 -18.0784 19.194 9.14868 23.5434 -90.5408 -1.10421e-005 4.14195e-006 6.14121e-006 4.77863 47.6362 0.266355 1.03912e-005 -9.99509e-007 3 -8.03008 -4.95136 -0.697615 -178.937 -1.3866 2.49579 -180 7.0153e-015 178.852 177.302 9.21379 179.901 -2.44236e-006 -4.01026e-006 0.124168 -18.9805 68.3633 19.8557 8.13649 25.2327 -3.48774 -176.059 -0.0784328 -1.98762 4.54188e-006 -4.6773e-006 -1.13349 -2.4416 -12.4978 0.0932373 4.11527e-006 -2.58537e-006 -0.212866 19.9866 69.6115 -20.9673 -8.13649 25.2327 3.48774 
52.6676 84.4746 6.38885 -1.65751 -6.9425 1.01695 0.0814639 -1.11521 0.0242809 0.157489 1.77242 0.0394342 0.157139 3.41748 0.0379236 -1.45978 13.0342 -0.412759 8.84278 7.27169 -0.727086 8.02545 -16.5116 -16.4379 17.2105 24.8893 75.453 3.27664e-006 -9.69565e-007 1.55962e-006 -6.94625 67.6921 2.08652 -1.97493e-006 1.85689e-006 -3 8.03009 -4.95139 0.697628 -7.18332 -18.0855 19.201 9.00702 23.5834 -90.4434 -1.10421e-005 4.14195e-006 6.14121e-006 4.78241 47.7043 0.261925 1.03912e-005 -9.99509e-007 3 -8.03008 -4.95136 -0.697615 -178.931 -1.37313 2.49365 -180 7.0153e-015 178.853 177.297 9.20696 179.902 -2.44236e-006 -4.01026e-006 0.124054 -18.9799 68.3624 19.855 8.13649 25.2327 -3.48774 -176.046 -0.0483363 -1.99476 4.54188e-006 -4.6773e-006 -1.13294 -2.44437 -12.5109 0.0932022 4.11527e-006 -2.58537e-006 -0.212823 19.9865 69.6116 -20.9673 -8.13649 25.2327 3.48774 
52.6663 84.4793 6.38209 -1.66313 -6.92653 1.03552 0.0820251 -1.12328 0.0242728 0.158299 1.75629 0.0390166 0.157954 3.40136 0.0376879 -1.45833 13.0795 -0.414201 8.86358 7.23634 -0.725412 8.10869 -16.4841 -16.3775 17.3236 24.853 75.3656 3.27664e-006 -9.69565e-007 1.55962e-006 -6.94269 67.6775 2.08295 -1.97493e-006 1.85689e-006 -3 8.03009 -4.95139 0.697628 -7.2106 -18.0885 19.1998 8.86067 23.6229 -90.3439 -1.10421e-005 4.14195e-006 6.14121e-006 4.78657 47.779 0.25707 1.03912e-005 -9.99509e-007 3 -8.03008 -4.95136 -0.697615 -178.925 -1.35943 2.49166 -180 7.0153e-015 178.853 177.291 9.20082 179.903 -2.44236e-006 -4.01026e-006 0.123938 -18.9794 68.3617 19.8546 8.13649 25.2327 -3.48774 -176.033 -0.0172687 -2.00302 4.54188e-006 -4.6773e-006 -1.13244 -2.44815 -12.5258 0.0930041 4.11527e-006 -2.58537e-006 -0.212782 19.986 69.6112 -20.9668 -8.13649 25.2327 3.48774 
52.6673 84.4728 6.37719 -1.66862 -6.91073 1.05488 0.0826539 -1.13134 0.0242325 0.159272 1.74017 0.0386116 0.158932 3.38523 0.0373957 -1.45747 13.125 -0.415879 8.88186 7.20102 -0.724211 8.19405 -16.4563 -16.3167 17.441 24.8157 75.2756 3.27664e-006 -9.69565e-007 1.55962e-006 -6.93987 67.6669 2.08008 -1.97493e-006 1.85689e-006 -3 8.03009 -4.95139 0.697628 -7.24442 -18.0873 19.1899 8.70922 23.6614 -90.242 -1.10421e-005 4.14195e-006 6.14121e-006 4.79117 47.8611 0.251722 1.03912e-005 -9.99509e-007 3 -8.03008 -4.95136 -0.697615 -178.919 -1.34551 2.48983 -180 7.0153e-015 178.853 177.285 9.19542 179.903 -2.44236e-006 -4.01026e-006 0.123822 -18.9791 68.3612 19.8543 8.13649 25.2327 -3.48774 -176.019 0.0148414 -2.01252 4.54188e-006 -4.6773e-006 -1.13199 -2.45305 -12.5426 0.0926242 4.11527e-006 -2.58537e-006 -0.212741 19.9851 69.6104 -20.9658 -8.13649 25.2327 3.48774 
52.6581 84.4748 6.37556 -1.67403 -6.8946 1.07559 0.0833426 -1.1395 0.0241589 0.160385 1.72385 0.0382232 0.160051 3.36891 0.037048 -1.4564 13.1704 -0.418554 8.89725 7.16592 -0.723992 8.28225 -16.4289 -16.2562 17.5611 24.778 75.1842 3.27664e-006 -9.69565e-007 1.55962e-006 -6.93765 67.66 2.07781 -1.97493e-006 1.85689e-006 -3 8.03009 -4.95139 0.697628 -7.28554 -18.0821 19.1716 8.55435 23.699 -90.1386 -1.10421e-005 4.14195e-006 6.14121e-006 4.79613 47.9493 0.245981 1.03912e-005 -9.99509e-007 3 -8.03008 -4.95136 -0.697615 -178.913 -1.33073 2.48804 -180 7.01531e-015 178.854 177.279 9.19104 179.904 -2.44236e-006 -4.01026e-006 0.123705 -18.9791 68.3611 19.8544 8.13649 25.2327 -3.48774 -176.004 0.0492385 -2.02367 4.54188e-006 -4.6773e-006 -1.13157 -2.45941 -12.5623 0.0920234 4.11527e-006 -2.58537e-006 -0.2127 19.9834 69.6088 -20.9641 -8.13649 25.2327 3.48774 
52.6562 84.4729 6.3713 -1.67944 -6.87771 1.09801 0.0840732 -1.14783 0.024054 0.161595 1.70717 0.03785 0.161267 3.35224 0.0366518 -1.45428 13.2154 -0.422808 8.90961 7.13093 -0.725053 8.3742 -16.4023 -16.196 17.682 24.7406 75.0925 3.27664e-006 -9.69565e-007 1.55962e-006 -6.93584 67.6562 2.07591 -1.97493e-006 1.85689e-006 -3 8.03009 -4.95139 0.697628 -7.33439 -18.0737 19.146 8.39785 23.736 -90.0343 -1.10421e-005 4.14195e-006 6.14121e-006 4.80134 48.0413 0.239995 1.03912e-005 -9.99509e-007 3 -8.03008 -4.95136 -0.697615 -178.908 -1.31462 2.48622 -180 7.01531e-015 178.854 177.273 9.18778 179.904 -2.44236e-006 -4.01026e-006 0.123588 -18.9796 68.3616 19.855 8.13649 25.2327 -3.48774 -175.988 0.0867526 -2.03662 4.54188e-006 -4.6773e-006 -1.13117 -2.46735 -12.5854 0.0911948 4.11527e-006 -2.58537e-006 -0.21266 19.9809 69.6064 -20.9615 -8.13649 25.2327 3.48774 
52.6584 84.4599 6.37507 -1.68484 -6.86025 1.12189 0.0848411 -1.15632 0.0239204 0.162893 1.69019 0.0374875 0.162571 3.33526 0.0362105 -1.45128 13.2604 -0.428356 8.91919 7.09583 -0.727144 8.46988 -16.3761 -16.136 17.8039 24.7036 75.0001 3.27664e-006 -9.69565e-007 1.55962e-006 -6.93438 67.6551 2.07436 -1.97493e-006 1.85689e-006 -3 8.03009 -4.95139 0.697628 -7.39056 -18.0622 19.1134 8.23934 23.7727 -89.9289 -1.10421e-005 4.14195e-006 6.14121e-006 4.8068 48.1371 0.233766 1.03912e-005 -9.99509e-007 3 -8.03008 -4.95136 -0.697615 -178.902 -1.29742 2.48439 -180 7.01531e-015 178.854 177.266 9.18553 179.905 -2.44236e-006 -4.01026e-006 0.123469 -18.9806 68.3626 19.856 8.13649 25.2327 -3.48774 -175.97 0.126833 -2.05114 4.54188e-006 -4.6773e-006 -1.13079 -2.47665 -12.6113 0.0901676 4.11527e-006 -2.58537e-006 -0.21262 19.9777 69.6032 -20.9581 -8.13649 25.2327 3.48774 
52.657 84.4606 6.36329 -1.69022 -6.84241 1.14699 0.0856418 -1.16493 0.0237604 0.16427 1.67297 0.0371314 0.163954 3.31804 0.0357279 -1.44756 13.3053 -0.43491 8.92625 7.06039 -0.730013 8.56926 -16.3502 -16.0757 17.9272 24.6667 74.9069 3.27664e-006 -9.69565e-007 1.55962e-006 -6.93327 67.6563 2.07313 -1.97493e-006 1.85689e-006 -3 8.03009 -4.95139 0.697628 -7.45366 -18.0477 19.074 8.07847 23.8092 -89.822 -1.10421e-005 4.14195e-006 6.14121e-006 4.81249 48.2364 0.227296 1.03912e-005 -9.99509e-007 3 -8.03008 -4.95136 -0.697615 -178.896 -1.27941 2.4826 -180 7.01531e-015 178.855 177.26 9.18416 179.905 -2.44236e-006 -4.01026e-006 0.12335 -18.9818 68.3639 19.8574 8.13649 25.2327 -3.48774 -175.952 0.16893 -2.06698 4.54188e-006 -4.6773e-006 -1.13043 -2.48711 -12.6395 0.0889713 4.11527e-006 -2.58537e-006 -0.21258 19.9739 69.5994 -20.9541 -8.13649 25.2327 3.48774 
52.6551 84.4605 6.35984 -1.69559 -6.82439 1.17305 0.0864706 -1.17363 0.0235763 0.165717 1.65558 0.0367774 0.165407 3.30064 0.0352073 -1.44328 13.3504 -0.442181 8.93102 7.0244 -0.733408 8.67232 -16.3243 -16.0148 18.0522 24.6299 74.8125 3.27664e-006 -9.69565e-007 1.55962e-006 -6.93246 67.6595 2.0722 -1.97493e-006 1.85689e-006 -3 8.03009 -4.95139 0.697628 -7.52329 -18.0302 19.0281 7.9149 23.846 -89.7135 -1.10421e-005 4.14195e-006 6.14121e-006 4.81841 48.3391 0.220589 1.03912e-005 -9.99509e-007 3 -8.03008 -4.95136 -0.697615 -178.89 -1.26082 2.48088 -180 7.01531e-015 178.855 177.253 9.18349 179.905 -2.44236e-006 -4.01026e-006 0.12323 -18.9834 68.3656 19.8591 8.13649 25.2327 -3.48774 -175.933 0.212493 -2.08391 4.54188e-006 -4.6773e-006 -1.13007 -2.4985 -12.6696 0.0876352 4.11527e-006 -2.58537e-006 -0.212541 19.9697 69.5953 -20.9496 -8.13649 25.2327 3.48774 
52.6548 84.4584 6.35462 -1.70093 -6.80636 1.19985 0.0873229 -1.18238 0.0233707 0.167226 1.63806 0.0364211 0.166922 3.28313 0.0346524 -1.4386 13.3959 -0.449881 8.93375 6.98763 -0.737078 8.77902 -16.2981 -15.9529 18.1791 24.5931 74.7167 3.27664e-006 -9.69565e-007 1.55962e-006 -6.93192 67.6644 2.07152 -1.97493e-006 1.85689e-006 -3 8.03009 -4.95139 0.697628 -7.59903 -18.0098 18.9761 7.74824 23.8831 -89.6031 -1.10421e-005 4.14195e-006 6.14121e-006 4.82455 48.445 0.213646 1.03912e-005 -9.99509e-007 3 -8.03008 -4.95136 -0.697615 -178.885 -1.24193 2.47928 -180 7.01531e-015 178.856 177.246 9.18338 179.906 -2.44236e-006 -4.01026e-006 0.123109 -18.9851 68.3674 19.8611 8.13649 25.2327 -3.48774 -175.913 0.256972 -2.10166 4.54188e-006 -4.6773e-006 -1.12973 -2.51061 -12.701 0.0861888 4.11527e-006 -2.58537e-006 -0.212503 19.9652 69.5908 -20.9449 -8.13649 25.2327 3.48774 
52.6543 84.4579 6.35046 -1.70624 -6.78851 1.22711 0.088194 -1.19117 0.0231458 0.168787 1.6205 0.0360581 0.168489 3.26556 0.0340666 -1.4337 13.4419 -0.457724 8.93469 6.94985 -0.740772 8.88932 -16.2713 -15.8897 18.3082 24.5562 74.6193 3.27664e-006 -9.69565e-007 1.55962e-006 -6.93163 67.6707 2.07108 -1.97493e-006 1.85689e-006 -3 8.03009 -4.95139 0.697628 -7.68049 -17.9866 18.9182 7.57814 23.9209 -89.4905 -1.10421e-005 4.14195e-006 6.14121e-006 4.8309 48.554 0.206472 1.03912e-005 -9.99509e-007 3 -8.03008 -4.95136 -0.697615 -178.879 -1.22297 2.47783 -180 7.01531e-015 178.856 177.239 9.18372 179.906 -2.44236e-006 -4.01026e-006 0.122987 -18.987 68.3695 19.8631 8.13649 25.2327 -3.48774 -175.893 0.301816 -2.12002 4.54188e-006 -4.6773e-006 -1.1294 -2.52323 -12.7332 0.0846614 4.11527e-006 -2.58537e-006 -0.212465 19.9606 69.5862 -20.94 -8.13649 25.2327 3.48774 
52.6525 84.4567 6.34584 -1.7115 -6.77104 1.25461 0.0890793 -1.19995 0.0229041 0.170392 1.60294 0.035684 0.1701 3.248 0.0334536 -1.42873 13.4886 -0.46542 8.9341 6.91084 -0.744239 9.0032 -16.2438 -15.8249 18.4399 24.5192 74.5199 3.27664e-006 -9.69565e-007 1.55962e-006 -6.93156 67.6781 2.07085 -1.97493e-006 1.85689e-006 -3 8.03009 -4.95139 0.697628 -7.76726 -17.9607 18.8547 7.40422 23.9595 -89.3754 -1.10421e-005 4.14195e-006 6.14121e-006 4.83745 48.6658 0.199068 1.03912e-005 -9.99509e-007 3 -8.03008 -4.95136 -0.697615 -178.874 -1.20421 2.47657 -180 7.01531e-015 178.856 177.232 9.18434 179.906 -2.44236e-006 -4.01026e-006 0.122865 -18.9888 68.3715 19.8652 8.13649 25.2327 -3.48774 -175.872 0.346475 -2.13872 4.54188e-006 -4.6773e-006 -1.12908 -2.53613 -12.7657 0.0830826 4.11527e-006 -2.58537e-006 -0.212427 19.9559 69.5815 -20.9351 -8.13649 25.2327 3.48774 
52.6543 84.4544 6.34496 -1.71671 -6.75413 1.28208 0.0899742 -1.20869 0.0226479 0.172033 1.58544 0.0352945 0.171747 3.23051 0.0328169 -1.42385 13.5361 -0.472681 8.93222 6.87037 -0.747228 9.12061 -16.2152 -15.7581 18.5744 24.4818 74.4184 3.27664e-006 -9.69565e-007 1.55962e-006 -6.93168 67.6861 2.07081 -1.97493e-006 1.85689e-006 -3 8.03009 -4.95139 0.697628 -7.85893 -17.9322 18.7859 7.22612 23.9992 -89.2576 -1.10421e-005 4.14195e-006 6.14121e-006 4.8442 48.7804 0.191437 1.03912e-005 -9.99509e-007 3 -8.03008 -4.95136 -0.697615 -178.868 -1.18591 2.47554 -180 7.01531e-015 178.857 177.225 9.18514 179.907 -2.44236e-006 -4.01026e-006 0.122741 -18.9907 68.3735 19.8672 8.13649 25.2327 -3.48774 -175.851 0.3904 -2.15753 4.54188e-006 -4.6773e-006 -1.12876 -2.54911 -12.798 0.0814816 4.11527e-006 -2.58537e-006 -0.21239 19.9515 69.5771 -20.9304 -8.13649 25.2327 3.48774 
